<?xml version="1.0" encoding="UTF-8"?>
<!DOCTYPE svg PUBLIC "-//W3C//DTD SVG 1.1//EN" "http://www.w3.org/Graphics/SVG/1.1/DTD/svg11.dtd">
<!-- Creator: CorelDRAW 2020 (64-Bit) -->
<svg xmlns="http://www.w3.org/2000/svg" xml:space="preserve" width="208.753mm" height="211.667mm" version="1.1" style="shape-rendering:geometricPrecision; text-rendering:geometricPrecision; image-rendering:optimizeQuality; fill-rule:evenodd; clip-rule:evenodd"
viewBox="0 0 3943.11 3998.15"
 xmlns:xlink="http://www.w3.org/1999/xlink"
 xmlns:xodm="http://www.corel.com/coreldraw/odm/2003">
 <defs>
  <style type="text/css">
   <![CDATA[
    .fil0 {fill:none}
    .fil2 {fill:#E6E7E8;fill-rule:nonzero}
    .fil1 {fill:#3D6889;fill-rule:nonzero}
   ]]>
  </style>
 </defs>
 <g id="Capa_x0020_1">
  <metadata id="CorelCorpID_0Corel-Layer"/>
  <path class="fil0" d="M1971.55 1006.47c62.27,0 112.95,-50.68 112.95,-112.95l0 -181.56c0,-0.04 0,-0.08 0,-0.1 0,-0.04 0,-0.08 0,-0.1l0 -357.63c0,-62.29 -50.68,-112.97 -112.95,-112.97 -62.28,0 -112.95,50.68 -112.95,112.97l-0 539.39c0.01,62.27 50.67,112.95 112.95,112.95z"/>
  <path class="fil0" d="M829.82 1006.47c62.29,0 112.96,-50.68 112.96,-112.95l0 -181.47c0,-0.08 -0.01,-0.14 -0.01,-0.2 0,-0.08 0.01,-0.14 0.01,-0.19l0 -357.53c0,-62.29 -50.67,-112.97 -112.96,-112.97 -62.27,0 -112.94,50.68 -112.94,112.97l0 539.39c-0.01,62.27 50.66,112.95 112.94,112.95z"/>
  <path class="fil1" d="M3822.52 591.28l-355.12 0 0 -237.15c0.01,-195.28 -158.85,-354.13 -354.11,-354.13 -195.27,0 -354.11,158.86 -354.11,354.13l0 237.15 -433.51 0 0 -237.15c0,-195.28 -158.85,-354.13 -354.12,-354.13 -195.25,0 -354.11,158.86 -354.11,354.13l0 237.15 -433.5 0 0 -237.15c0.01,-195.28 -158.86,-354.13 -354.12,-354.13 -195.25,0 -354.11,158.86 -354.11,354.13l0 237.15 -355.12 0c-66.6,0 -120.58,53.99 -120.58,120.58l0 2797.09c0,269.75 219.44,489.19 489.19,489.19l2964.73 -0c269.75,0 489.19,-219.44 489.19,-489.19l0 -2797.09c-0.01,-66.59 -53.98,-120.58 -120.59,-120.58zm-120.58 761.18l-3460.76 0 0 -520.02 234.55 0 0 61.08c0,195.27 158.86,354.11 354.1,354.11 195.25,0 354.13,-158.86 354.13,-354.11l0 -61.08 433.5 0 0 61.08c0,195.27 158.86,354.11 354.11,354.11 195.27,0 354.11,-158.86 354.11,-354.11l0 -61.08 433.51 0 0 61.08c0,195.27 158.86,354.11 354.11,354.11 195.27,0 354.11,-158.86 354.11,-354.11l0 -61.08 234.54 0 0 520.02 -0.01 0zm-701.6 -998.33c0,-62.29 50.65,-112.97 112.95,-112.97 62.27,0 112.95,50.68 112.95,112.97l0 539.39c0,62.27 -50.68,112.95 -112.95,112.95 -62.29,0 -112.95,-50.68 -112.95,-112.95l0 -539.39zm-1141.73 0c0,-62.29 50.67,-112.97 112.95,-112.97 62.27,0 112.95,50.68 112.95,112.97l0 357.63c0,0.02 0,0.06 0,0.1 0,0.02 0,0.06 0,0.1l0 181.56c0,62.27 -50.68,112.95 -112.95,112.95 -62.28,0 -112.95,-50.68 -112.95,-112.95l-0 -539.39zm-1141.74 0c0,-62.29 50.67,-112.97 112.95,-112.97 62.29,0 112.96,50.68 112.96,112.97l0 357.53c0,0.06 -0.01,0.12 -0.01,0.19 0,0.06 0.01,0.12 0.01,0.2l0 181.47c0,62.27 -50.67,112.95 -112.96,112.95 -62.27,0 -112.94,-50.68 -112.94,-112.95l0 -539.39 -0.01 0zm2985.06 3154.82c0,136.75 -111.26,248.02 -248.02,248.02l-2964.73 0c-136.75,0 -248.02,-111.26 -248.02,-248.02l-0 -1915.34 3460.78 0 0 1915.34z"/>
  <path class="fil2" d="M596.29 2188.01l2750.53 0c66.59,0 120.58,-53.99 120.58,-120.58 0,-66.59 -53.99,-120.58 -120.58,-120.58l-2750.53 0c-66.6,0 -120.58,53.99 -120.58,120.58 0,66.59 53.98,120.58 120.58,120.58z"/>
  <path class="fil2" d="M596.29 2747.07l2750.53 0c66.59,0 120.58,-53.99 120.58,-120.58 0,-66.59 -53.99,-120.58 -120.58,-120.58l-2750.53 0c-66.6,0 -120.58,53.99 -120.58,120.58 0,66.59 53.98,120.58 120.58,120.58z"/>
  <path class="fil2" d="M596.29 3306.13l2750.53 0c66.59,0 120.58,-53.99 120.58,-120.58 0,-66.59 -53.99,-120.58 -120.58,-120.58l-2750.53 0c-66.6,0 -120.58,53.99 -120.58,120.58 0,66.59 53.98,120.58 120.58,120.58z"/>
 </g>
</svg>
