<?xml version="1.0" encoding="UTF-8"?>
<!DOCTYPE svg PUBLIC "-//W3C//DTD SVG 1.1//EN" "http://www.w3.org/Graphics/SVG/1.1/DTD/svg11.dtd">
<!-- Creator: CorelDRAW 2020 (64-Bit) -->
<svg xmlns="http://www.w3.org/2000/svg" xml:space="preserve" width="162.128mm" height="132.055mm" version="1.1" style="shape-rendering:geometricPrecision; text-rendering:geometricPrecision; image-rendering:optimizeQuality; fill-rule:evenodd; clip-rule:evenodd"
viewBox="0 0 3449.77 2809.87"
 xmlns:xlink="http://www.w3.org/1999/xlink"
 xmlns:xodm="http://www.corel.com/coreldraw/odm/2003">
 <defs>
  <style type="text/css">
   <![CDATA[
    .fil0 {fill:#E6E7E8}
    .fil1 {fill:#3D6889}
   ]]>
  </style>
 </defs>
 <g id="Capa_x0020_1">
  <metadata id="CorelCorpID_0Corel-Layer"/>
  <path class="fil0" d="M877.68 1019.33c-33.34,18.49 -105.76,37.83 -108.88,120.06 -1.39,36.62 32.98,146.99 41.87,194.11 28.62,151.77 170.29,114.61 352.66,114.17 12.39,-102.93 81.9,-180.56 185.9,-190.13 107.3,-9.88 263.28,-1.23 375.67,-1.01 259.49,0.51 526.15,-63.7 561.48,191.14 365.38,0.64 313.99,20.22 384.2,-248.45 26.3,-100.63 -21.38,-173.1 -120.01,-176.84 -102.09,-3.88 -212.24,0.01 -315.23,-0.01 -419.63,-0.05 -850.76,9.68 -1268.94,-0.57 -25.29,-162.98 -5.82,-225.64 65.35,-340.05 55.26,16.56 92.58,36.12 154.31,1.5 36.44,-20.44 72.65,-63.48 75.44,-121.77 5.45,-114.07 -115.85,-197.68 -221.44,-137.12 -125.72,72.1 -48.65,159.5 -72.36,204.9 -7.12,13.63 -28.18,37.23 -39.67,58.49 -58.93,109.05 -62.84,193.6 -50.35,331.59z"/>
  <path class="fil1" d="M1307.54 2459.62c27.71,-0.42 50.65,-10.6 79.59,-13.38 34.38,-3.3 69.15,-0.84 103.83,-2.6 -116.28,-113.97 -184.34,-246.72 -120.95,-428.07 45.88,-131.26 180.42,-247.79 354.88,-248.08 259.69,-0.43 439.84,253.45 356.42,501.42 -29.08,86.46 -76.73,130.45 -122.49,174.58 32.33,1.69 64.56,-0.25 96.58,2.18 31.65,2.4 57.04,13.42 86.79,13.81 13.8,-259.66 32.69,-520.01 48.63,-779.73 7.12,-116.01 44.64,-277 -56.51,-326.71 -40.56,-19.94 -778.08,-17.56 -813.71,-2.37 -106.74,45.49 -69.54,206.39 -62.2,321.57 16.7,262.01 35.63,525.1 49.12,787.39z"/>
  <path class="fil1" d="M1209.55 2809.84l1030.74 0.04c31.16,-123.4 -43.46,-233.13 -126.74,-264.84 -67.07,-25.54 -709.32,-23.97 -771.76,-2.02 -86.14,30.28 -164.16,140.5 -132.25,266.82z"/>
  <path class="fil1" d="M1684.55 1855.49c-382.63,55.62 -300.4,632.92 80.89,578.62 384.07,-54.7 297.97,-633.69 -80.89,-578.62z"/>
  <path class="fil1" d="M2883.07 1857.99c-391.6,78.05 -264.32,643.35 104.19,574.1 143.29,-26.93 268.73,-165.98 234.07,-342.96 -27.26,-139.18 -164.61,-265.74 -338.26,-231.13z"/>
  <path class="fil1" d="M0 2717.7l0.14 88.34 1034.83 0c-0.51,-132.43 -22.92,-210.77 -119.95,-256.11 -72.98,-34.1 -260.42,-20.19 -353.62,-20.28 -112.68,-0.11 -265.22,-8.72 -373.16,0.86 -96.51,8.57 -188.91,90.48 -188.24,187.19z"/>
  <path class="fil1" d="M2414.89 2806.04l1034.6 -0 0.29 -88.28c0.57,-97.18 -91.11,-178.59 -188.22,-187.15 -108.11,-9.54 -260.43,-1.24 -373.15,-1.04 -92.2,0.17 -282.18,-13.65 -353.6,20.4 -97.19,46.34 -119.4,122.87 -119.91,256.08z"/>
  <path class="fil1" d="M470.42 1856.46c-148.61,23.93 -272.38,161.1 -243.11,338.83 23.53,142.87 164.26,265.21 335.92,237.75 143,-22.88 267.05,-161.66 240.6,-334.37 -22.24,-145.16 -158.84,-270.31 -333.4,-242.2z"/>
  <path class="fil1" d="M1655.77 5.77c-391.6,78.05 -264.32,643.35 104.19,574.1 143.29,-26.93 268.73,-165.98 234.07,-342.96 -27.26,-139.18 -164.61,-265.74 -338.26,-231.13z"/>
  <path class="fil1" d="M1187.59 953.83l1034.6 -0 0.29 -88.28c0.57,-97.18 -91.11,-178.59 -188.22,-187.15 -108.11,-9.54 -260.43,-1.24 -373.15,-1.04 -92.2,0.17 -282.18,-13.65 -353.6,20.4 -97.19,46.34 -119.4,122.87 -119.91,256.08z"/>
 </g>
</svg>
