<?xml version="1.0" encoding="UTF-8"?>
<!DOCTYPE svg PUBLIC "-//W3C//DTD SVG 1.1//EN" "http://www.w3.org/Graphics/SVG/1.1/DTD/svg11.dtd">
<!-- Creator: CorelDRAW 2020 (64-Bit) -->
<svg xmlns="http://www.w3.org/2000/svg" xml:space="preserve" width="173.199mm" height="172.327mm" version="1.1" style="shape-rendering:geometricPrecision; text-rendering:geometricPrecision; image-rendering:optimizeQuality; fill-rule:evenodd; clip-rule:evenodd"
viewBox="0 0 10885.92 10831.13"
 xmlns:xlink="http://www.w3.org/1999/xlink"
 xmlns:xodm="http://www.corel.com/coreldraw/odm/2003">
 <defs>
  <style type="text/css">
   <![CDATA[
    .fil1 {fill:#E6E7E8}
    .fil0 {fill:#3D6889}
   ]]>
  </style>
 </defs>
 <g id="Capa_x0020_1">
  <metadata id="CorelCorpID_0Corel-Layer"/>
  <g id="_2638978862048">
   <path class="fil0" d="M4999.25 953.54c0,519.05 -90.14,818.43 243.9,1042.12 0,243.82 40.78,458.85 43.78,687.93 3.29,252.02 21.9,176.82 510.54,176.82 0,-87.54 6.98,-89.97 22.17,-155.21 145.36,33.86 293.12,169.73 420.01,245.17l834.85 517.71c73.8,48.52 136.36,82.14 207.54,125.04 79.06,47.65 134.5,85.33 222.74,132.03 0,250.31 -37.39,584.59 73.4,791.34 100.61,187.75 229.74,202.97 237.59,405.41 2.75,70.88 -0.58,150.39 -0.58,222.31 -228.22,53.17 -737.64,244.83 -988.42,341.95 -271.94,105.31 -715.53,282.64 -984.96,345.41 30.66,-114.83 170.37,-184.41 229.84,-302.31 141.28,-280.1 102.76,-683.63 102.76,-1005.89 0,-221.82 -82.37,-497.83 -266.08,-620.84 -73.24,49.04 -86.53,92.81 -169.44,140.98 -178.91,103.93 -441.04,113.82 -620.26,5.71 -89.19,-53.8 -114.65,-98.98 -185.9,-146.69 -79.84,119.23 -157.48,165.89 -212.3,319.84 -50.25,141.1 -31.6,344.96 -31.6,522.73 -149.47,-71.72 -1694.67,-499.16 -1881.96,-557.06 -137.24,-42.43 -1742.93,-537.72 -1909.6,-551.58 0,-221.74 17.14,-145.58 127.01,-272.1 181.07,-208.51 116.89,-678.68 116.89,-947.41 0,-179.21 -104.89,-268.68 -177.38,-376.94 -361.37,241.99 -414.67,241.99 -776.05,0 -87.62,130.85 -177.38,195.14 -177.38,421.29 0,265.1 -59.58,671.13 106.91,890.87 100.63,132.83 114.97,37.76 144.63,254.48l36.75 561.92c4.34,90.47 22.13,102.68 22.13,199.59l509.98 0c0,-96.14 16.57,-188.64 22.36,-310.23 5.17,-108.63 21.99,-170.98 21.99,-310.6 241.59,20.1 3556.57,1087.24 3813.73,1108.64 0,516.38 -53.27,546.1 275.23,899.92 45.59,49.11 15.49,-36.11 46.51,86.53 48.68,192.45 18.88,842.87 77.37,964.75 -748.21,395.9 -1446.36,889.83 -2195.11,1286.02 0,-78.98 -8.71,-176.85 15.59,-250.48 69.64,-210.99 405.69,-207.36 405.69,-858.16 0,-363.46 57.58,-863.19 -95.52,-1190.49 -51,-109.04 -143.89,-264.29 -259.24,-295.08 -46.4,173.79 -495.27,395.13 -902.36,192.83 -148.46,-73.77 -141.93,-120.04 -250.62,-192.83 -120.86,80.93 -310.42,376.98 -310.42,576.49l0 1042.13c0,298.45 178.27,539.48 399.11,687.36 0,143.74 12.26,223.19 20.94,333.83l67.75 1063.06 820.39 0c2.15,-96.38 21.62,-104.82 22.54,-221.37 2.09,-264.49 43.98,-473.03 43.98,-732.06 437.09,-292.7 940.11,-551.34 1392.7,-824.58l557.27 -329.64c377.79,-226.41 337.24,-153.98 932.49,-153.98l25.96 -176.75c221.89,121.32 1082.23,728.98 1371.85,929.7 159.33,110.42 96.96,350.97 92.17,512.97l17.77 330.52c0,176.47 0.55,337.31 92.71,505.96 78.95,144.48 163.86,261.18 306.4,336.6l43.11 555.56c5.08,64.86 -2.67,129.54 4.5,195.06 10.57,96.53 15.11,256.71 31.72,367.39 63.77,425.01 -174.48,323.24 874.1,323.24 0,-495.1 88.69,-955.65 88.69,-1441.24 274.85,-73.39 421.29,-572.02 421.29,-842.56 0,-465.66 90.82,-1224.23 -332.59,-1507.75 -96.69,64.75 -120.85,123.12 -250.78,192.67 -497.49,266.3 -778.88,-65.55 -968.72,-192.67 -134.72,90.21 -305.48,376.79 -310.42,598.67l-740.59 -501.09c-133.09,-88.7 -241.28,-168.32 -368.05,-252.79 -62.91,-41.91 -118.43,-76.75 -186.43,-123.98 -69.69,-48.41 -106.56,-97.5 -190.5,-119.92 17.6,-211.55 44.34,-430.75 44.34,-665.19 94.57,-22.03 168.88,-56.16 247.1,-85.49l493.05 -172.13c102.07,-33.68 171.01,-64.74 260.36,-94.4l510.06 -177.3c172.62,-62.41 328.07,-138.48 507.15,-180.2 0,197.57 29.27,395.31 44.35,576.49l620.83 0c0,-145.5 32.25,-370.7 43.03,-511.29 15.1,-196.83 23.49,-345.4 23.49,-553.01 163.03,-109.17 310.41,-284.7 310.41,-509.97l0 -753.88c0,-111.44 -19.94,-99.28 -22.17,-199.56 145.94,-77.22 663.81,-365.75 798.22,-376.94 46.32,198.8 190.93,215.4 226.1,350.39 14.34,55.05 17.13,103.96 17.95,181.6 2.65,251.89 44.19,480.2 44.19,754.03 734.58,0 564.5,112.41 617.53,-380.24 15.25,-141.69 25.14,-303.41 24.52,-441.11 -1.4,-308.69 289.2,-267.27 289.2,-664.22 0,-324.87 85.23,-903.09 -221.72,-1108.64 -162.08,108.53 -331.02,307.38 -647.6,137.62 -73.7,-39.52 -109.14,-94.99 -172.8,-137.62 -313.83,210.15 -221.73,787.74 -221.73,1175.16l-816.18 407.54c-49.18,-93.4 -81.01,-133.3 -159.42,-185.81 -200.58,134.31 -204.27,199.56 -509.98,199.56 -120.17,0 -314.04,-87.05 -354.76,-199.56 -227.95,60.87 -266.08,365.65 -266.08,576.49 -337.55,-178.61 -1394.05,-847.2 -1685.13,-1042.12 0,-109.07 20.92,-155.1 21.8,-288.62 2.94,-444.07 266.45,-325.11 266.45,-731.33 0,-293.03 66.33,-753.21 -199.56,-931.26 -163.42,109.44 -182.16,155.21 -399.11,155.21 -219.55,0 -204.9,-121.12 -332.59,-155.21 -77.33,56.66 -177.39,216.23 -177.39,354.77z"/>
   <path class="fil0" d="M8125.62 7161.93c195.63,0 306.33,7.93 482.84,-182.34 502.07,-541.22 -291.8,-1328.84 -832.49,-788.15 -100.36,100.36 -162.48,185.14 -170.88,377.27 -13.9,317.63 247.45,593.22 520.53,593.22z"/>
   <path class="fil0" d="M1828.54 5077.68c0,271.29 240.12,554.32 509.98,554.32l110.86 0c439.94,0 688.88,-600.24 361.31,-937.8 -361.82,-372.85 -982.15,-108.48 -982.15,383.47z"/>
   <path class="fil0" d="M5376.19 4013.39c708.05,0 645.58,-909.09 22.17,-909.09 -239.43,0 -432.38,221.01 -440.21,445.02 -7.97,228.19 190.75,464.07 418.04,464.07z"/>
   <path class="fil0" d="M8192.14 3126.48c540.04,0 592.59,-864.74 -22.17,-864.74 -550.45,0 -537.88,864.74 22.17,864.74z"/>
   <path class="fil0" d="M9855.1 1286.13c0,649.85 776.05,479.41 776.05,88.7l0 -110.86c0,-416.9 -776.05,-470.61 -776.05,22.17z"/>
   <path class="fil0" d="M232.09 1729.59c0,295.95 103.17,399.11 399.11,399.11 241.05,0 416.71,-372.08 195.14,-594.25 -270.45,-271.16 -594.25,7.46 -594.25,195.14z"/>
   <path class="fil0" d="M5198.81 310.53c0,463.32 687.36,548.75 687.36,-22.17 0,-395.3 -687.36,-380.59 -687.36,22.17z"/>
  </g>
  <polygon class="fil1" points="897.61,3591.01 4689.16,4699.65 4688.55,4922.51 873.58,3817.33 "/>
  <polygon class="fil1" points="5819.65,2549.99 7504.78,3592.1 7504.19,3785 5810.21,2742.95 "/>
  <polygon class="fil1" points="5770.95,6584.85 7260.88,7627.56 7244.89,7832.11 5773.07,6804.44 "/>
  <polygon class="fil1" points="9611.06,2767.25 8780.74,3174.98 8857.89,3320.15 9655.55,2926.92 "/>
  <polygon class="fil1" points="7815.4,5111.03 5841.82,5831.56 5819.39,6004.76 7837.76,5294.98 "/>
  <polygon class="fil1" points="5069.29,6735.24 2891.54,8013.39 2870.66,8248.4 5074.64,6961.62 "/>
 </g>
</svg>
