<?xml version="1.0" encoding="UTF-8"?>
<!DOCTYPE svg PUBLIC "-//W3C//DTD SVG 1.1//EN" "http://www.w3.org/Graphics/SVG/1.1/DTD/svg11.dtd">
<!-- Creator: CorelDRAW 2020 (64-Bit) -->
<svg xmlns="http://www.w3.org/2000/svg" xml:space="preserve" width="219.067mm" height="222.964mm" version="1.1" style="shape-rendering:geometricPrecision; text-rendering:geometricPrecision; image-rendering:optimizeQuality; fill-rule:evenodd; clip-rule:evenodd"
viewBox="0 0 31943.31 32511.62"
 xmlns:xlink="http://www.w3.org/1999/xlink"
 xmlns:xodm="http://www.corel.com/coreldraw/odm/2003">
 <defs>
  <style type="text/css">
   <![CDATA[
    .fil0 {fill:url(#id0)}
    .fil2 {fill:url(#id1)}
    .fil1 {fill:url(#id2)}
   ]]>
  </style>
  <linearGradient id="id0" gradientUnits="userSpaceOnUse" x1="20205.14" y1="9721.96" x2="22957.15" y2="9721.96">
   <stop offset="0" style="stop-opacity:1; stop-color:#4F91CE"/>
   <stop offset="0.188235" style="stop-opacity:1; stop-color:#6AA289"/>
   <stop offset="0.729412" style="stop-opacity:1; stop-color:#86B444"/>
   <stop offset="1" style="stop-opacity:1; stop-color:#86B444"/>
  </linearGradient>
  <linearGradient id="id1" gradientUnits="userSpaceOnUse" xlink:href="#id0" x1="2035.37" y1="16129.8" x2="34694.52" y2="16129.8">
  </linearGradient>
  <linearGradient id="id2" gradientUnits="userSpaceOnUse" xlink:href="#id0" x1="-44932.16" y1="17261.8" x2="22474.04" y2="17261.8">
  </linearGradient>
 </defs>
 <g id="Capa_x0020_2">
  <metadata id="CorelCorpID_0Corel-Layer"/>
  <path class="fil0" d="M20205.17 9721.94c0,759.97 616,1376.03 1375.99,1376.03l0 0c759.93,0 1375.97,-616.05 1375.97,-1376.03 0,-759.93 -616.04,-1375.99 -1375.97,-1375.99 -759.99,0 -1375.99,616.05 -1375.99,1375.99l0 0z"/>
  <path class="fil1" d="M14622.5 11008.88c0.16,0.77 0.41,1.55 0.63,2.32l0 0c-179.12,40.48 -356.02,88.47 -530.56,144.18l0 0c-16.93,5.6 -33.8,11.68 -50.71,17.44l0 0c-62.45,20.47 -124.8,41.76 -186.59,64.41l0 0c-94.55,35.23 -188.36,72.63 -281.48,112.7l0 0c-778.19,335.08 -1460.85,794.39 -2048.15,1377.98l0 0c-587.34,583.74 -1046.55,1262.76 -1377.98,2037.3l0 0c-160.95,376.07 -282.05,765.73 -364.82,1168.16l0 0c-0.82,-0.15 -1.65,-0.36 -2.46,-0.57l0 0c-89.46,429.48 -135.24,872.33 -135.24,1328.96l0 0c0,429.69 40.7,847.07 120.69,1252.52l0 0c1.39,0.31 2.67,0.63 4.01,0.93l0 0c82.76,425.3 208.33,836.27 377.82,1232.4l0 0c0.47,0.93 0.98,1.91 1.28,2.83l0 0c167.19,387.66 365.18,751.65 593.99,1091.98l0 0c229.16,339.15 490.01,655.19 782.71,947.94l0 0c587.3,587.08 1268.11,1048.35 2042.76,1383.33l0 0c131.64,56.94 265.38,107.2 400.26,154.42l0 0c248.86,85.81 502.73,157 762.54,210.4l0 0c-0.2,0.87 -0.45,1.69 -0.61,2.57l0 0c428.19,89.52 870.98,135.19 1328.96,135.19l0 0c430.71,0 848,-40.38 1252.26,-119.54l0 0c0.42,-1.75 0.83,-3.46 1.14,-5.21l0 0c425.31,-82.76 836.32,-208.28 1232.46,-377.82l0 0c268.42,-114.87 524.79,-246.09 770.78,-391.67l0 0c21.35,-12.7 43.42,-24.42 64.57,-37.34l0 0c13.17,-7.98 25.72,-16.77 38.89,-24.85l0 0c424.53,-263.07 815.37,-571.6 1171.35,-927.15l0 0c338.47,-338.95 633.74,-710.03 888.36,-1111.32l0 0c21.35,-33.76 43.93,-66.78 64.71,-101.04l0 0c3.35,-5.45 6.33,-11.21 9.62,-16.77l0 0c156.43,-259.42 295.89,-531.22 417.8,-815.95l0 0c183.89,-430.2 314.92,-878.03 396.85,-1342.59l0 0c1.85,-0.41 3.66,-0.92 5.51,-1.22l0 0c65.49,-370.02 100.15,-750.26 100.15,-1142.04 0,-496.81 -54.62,-975.56 -159.97,-1437.39l0 0c-1.28,0.31 -2.52,0.71 -3.85,0.92l0 0c-81.64,-361.01 -193.26,-712.96 -338.69,-1054.62l0 0c-1.75,-3.91 -3.7,-7.77 -5.35,-11.74l0 0c-334.51,-769.5 -793.88,-1446.71 -1377.98,-2031.02l0 0c-587.36,-587.08 -1268.27,-1046.5 -2042.76,-1377.92l0 0c-430.14,-184 -878.08,-315.08 -1342.64,-396.92l0 0c-0.32,-1.85 -0.83,-3.7 -1.24,-5.5l0 0c-370.88,-65.49 -751.14,-100.2 -1141.98,-100.2l0 0c-495.22,0 -973.87,55.13 -1437.04,161.52zm-64.19 9402.94c-5.77,-2.67 -11.43,-5.4 -17.13,-8.12l0 0c-59.78,-29.38 -119.19,-59.58 -177.37,-92.91l0 0c-74.13,-41.46 -147.07,-85.64 -218.62,-133.23l0 0c-9.32,-6.27 -18.21,-13.27 -27.47,-19.54l0 0c-182.3,-124.07 -356.74,-267.24 -522.37,-431.99l0 0c-680.77,-677.27 -1021.25,-1498.62 -1021.25,-2464.26l0 0c0,-785.13 229.16,-1473.24 679.31,-2067.79l0 0c13.9,-18.52 27.57,-36.99 41.88,-55.31l0 0c35.29,-44.69 71.08,-89.14 108.89,-132.76l0 0c60.66,-70.68 123.67,-140.43 191.16,-208.33l0 0c0.45,-0.41 0.92,-0.77 1.43,-1.24l0 0c66.73,-66.3 135.29,-128.29 204.78,-187.96l0 0c41.78,-36.42 84.31,-71.1 127.22,-105.05l0 0c17.69,-13.9 35.59,-27.06 53.54,-40.59l0 0c596.6,-454.89 1287.91,-686.37 2077.21,-686.37l0 0c778.61,0 1461.74,225.31 2052.83,668.01l0 0c16.52,12.15 32.82,24.69 49.23,37.2l0 0c50.73,39.4 101.4,79.21 150.73,121.96l0 0c71.76,61.42 142.49,125.52 211.21,193.88l0 0c0.1,0.06 0.15,0.1 0.2,0.16l0 0c0,0.04 0,0.04 0.04,0.04l0 0 0.16 0.16c66.83,67.18 129.06,136.21 189.2,206.07l0 0c36.32,41.82 70.94,84.27 104.88,127.01l0 0c13.9,17.85 27.21,35.91 40.7,53.86l0 0c454.93,596.6 686.41,1287.91 686.41,2077.05l0 0c0,524.23 -105.6,1005.35 -309.3,1446.56l0 0c-10.09,21.96 -20.78,43.73 -31.34,65.53l0 0c-34.51,70.59 -71.25,140.29 -111.11,208.71l0 0c-33.95,59.1 -69.03,117.69 -106.84,175.2l0 0c-14.96,22.48 -30.96,44.5 -46.54,66.77l0 0c-54.68,78.92 -113.07,156.43 -175.42,232.21l0 0c-0.71,1.02 -1.49,2 -2.36,2.97l0 0c-74.64,90.84 -152.79,180.15 -238.48,266.32l0 0c-677.27,680.86 -1498.72,1021.35 -2464.2,1021.35l0 0c-545.93,0 -1045.36,-114.41 -1501.23,-335.55l0 0z"/>
  <path class="fil2" d="M12233.56 485.51c-5749.96,1388.28 -10272.23,5857.94 -11710.57,11595.64l0 0c-2696.85,10757.99 5409.63,20430.48 15732.79,20430.48l0 0c7481.39,0 13802.99,-5102.99 15687.46,-11994.82l0 0c0.26,-0.92 -0.41,-1.95 -1.44,-1.95l0 0 -1221.55 -0.87c-82.72,0 -155.35,54.17 -179.79,133.23l0 0c-2229.84,7199.03 -9771.25,12118.49 -18018.78,10096.47l0 0c-4799.9,-1176.76 -9676.66,-6110.2 -10796.51,-10923.73l0 0c-2275.27,-9780.31 5127.52,-18509.32 14530.62,-18509.32l0 0c6654.59,0 12306.44,4372.12 14236.07,10394.4l0 0c0.15,0.63 0.77,1.04 1.39,1.04l0 0 1061.21 -1.28 304.78 0.1c1.04,0 1.75,-0.98 1.49,-1.95l0 0c-1973.65,-6753.81 -8222.17,-11702.29 -15605,-11702.9l0 0c-1311.21,-0.1 -2656.84,155.86 -4022.17,485.49l0 0z"/>
 </g>
</svg>
