<?xml version="1.0" encoding="UTF-8"?>
<!DOCTYPE svg PUBLIC "-//W3C//DTD SVG 1.1//EN" "http://www.w3.org/Graphics/SVG/1.1/DTD/svg11.dtd">
<!-- Creator: CorelDRAW 2020 (64-Bit) -->
<svg xmlns="http://www.w3.org/2000/svg" xml:space="preserve" width="56.364mm" height="56.322mm" version="1.1" style="shape-rendering:geometricPrecision; text-rendering:geometricPrecision; image-rendering:optimizeQuality; fill-rule:evenodd; clip-rule:evenodd"
viewBox="0 0 5595.91 5591.74"
 xmlns:xlink="http://www.w3.org/1999/xlink"
 xmlns:xodm="http://www.corel.com/coreldraw/odm/2003">
 <defs>
  <style type="text/css">
   <![CDATA[
    .fil0 {fill:#E30613;fill-rule:nonzero}
    .fil1 {fill:white;fill-rule:nonzero}
   ]]>
  </style>
 </defs>
 <g id="Capa_x0020_1">
  <metadata id="CorelCorpID_0Corel-Layer"/>
  <path id="Trazado_3045" class="fil0" d="M4970.44 1530.33l0 170.96 621.3 0 0 -1396.89c0,-170.96 -137.6,-304.4 -304.4,-304.4l-4982.95 0c-166.79,0 -304.4,137.6 -304.4,304.4l0 4982.95c0,166.79 137.6,304.4 304.4,304.4l4982.95 0c170.96,0 304.4,-137.6 304.4,-304.4l0 -1392.72 -617.13 0 0 170.96c208.49,50.04 358.61,237.68 358.61,454.51 0,12.51 0,20.85 0,33.36 -20.85,241.85 -221,429.49 -462.85,437.83 -258.53,4.17 -475.36,-200.15 -479.53,-462.85 -4.17,-221 145.94,-412.81 358.61,-467.02l0 -396.13 842.31 4.17 0 -746.4 -1025.78 0c-50.04,208.49 -237.68,358.61 -454.51,358.61 -12.51,0 -20.85,0 -33.36,0 -258.53,-16.68 -454.51,-241.85 -437.83,-500.38 16.68,-258.53 241.85,-454.51 500.38,-437.83 204.32,12.51 379.45,158.45 425.32,358.61l1025.78 0 0 -771.42 -846.48 -4.17 0 -396.13c-208.49,-54.21 -358.61,-241.85 -358.61,-458.68 0,-12.51 0,-20.85 0,-33.36 20.85,-241.85 216.83,-429.49 462.85,-437.83 258.53,-4.17 475.36,200.15 479.53,462.85 8.34,221 -141.77,412.81 -358.61,467.02l0 0zm-1717.97 2935.56c-66.72,58.38 -150.11,91.74 -237.68,87.57 -41.7,0 -87.57,-8.34 -125.09,-29.19 -41.7,-20.85 -75.06,-50.04 -100.08,-83.4l-1084.16 -1430.25 -475.36 454.51 0 783.93c4.17,83.4 -29.19,162.62 -87.57,221 -62.55,58.38 -141.77,87.57 -225.17,83.4 -83.4,4.17 -162.62,-29.19 -221,-87.57 -58.38,-58.38 -91.74,-133.43 -87.57,-216.83l0 -2889.69c0,-83.4 29.19,-162.62 91.74,-216.83 62.55,-58.38 145.94,-91.74 229.34,-87.57 83.4,-4.17 162.62,29.19 221,83.4 58.38,58.38 87.57,137.6 83.4,221l0 1359.36 1597.05 -1576.2c62.55,-70.89 150.11,-112.59 246.02,-116.76 75.06,0 150.11,33.36 195.98,95.91 50.04,54.21 79.23,125.09 79.23,200.15 0,75.06 -33.36,145.94 -91.74,195.98l-1088.33 1038.29 1113.34 1476.12c20.85,29.19 37.53,62.55 50.04,95.91 12.51,33.36 20.85,70.89 20.85,108.42 0,91.74 -37.53,175.13 -104.25,229.34l0 0zm1609.55 -3640.26c-137.6,0 -246.02,112.59 -246.02,246.02 0,133.43 112.59,246.02 246.02,246.02 137.6,0 246.02,-112.59 246.02,-246.02 0,0 0,0 0,0 0,-137.6 -112.59,-246.02 -246.02,-246.02l0 0zm-750.57 1734.65c-137.6,0 -246.02,112.59 -246.02,246.02 0,133.43 112.59,246.02 246.02,246.02 137.6,0 246.02,-112.59 246.02,-246.02 0,0 0,0 0,0 0,-133.43 -108.42,-246.02 -246.02,-246.02l0 0zm750.57 1709.63c-137.6,0 -246.02,112.59 -246.02,246.02 0,137.6 112.59,246.02 246.02,246.02 137.6,0 246.02,-112.59 246.02,-246.02 0,0 0,0 0,0 0,-137.6 -112.59,-246.02 -246.02,-246.02l0 0z"/>
  <path id="Trazado_3046" class="fil1" d="M3352.54 4240.72c0,87.57 -37.53,170.96 -104.25,225.17 -66.72,58.38 -150.11,91.74 -237.68,87.57 -41.7,0 -87.57,-8.34 -125.09,-29.19 -41.7,-20.85 -75.06,-50.04 -100.08,-83.4l-1084.16 -1430.25 -475.36 454.51 0 783.93c4.17,83.4 -29.19,162.62 -87.57,221 -62.55,58.38 -141.77,87.57 -225.17,83.4 -83.4,4.17 -162.62,-29.19 -221,-87.57 -58.38,-58.38 -91.74,-133.43 -87.57,-216.83l0 -2889.69c0,-83.4 29.19,-162.62 91.74,-216.83 62.55,-58.38 145.94,-91.74 229.34,-87.57 83.4,-4.17 162.62,29.19 221,83.4 58.38,58.38 87.57,137.6 83.4,221l0 1359.36 1601.22 -1576.2c62.55,-70.89 150.11,-112.59 246.02,-116.76 75.06,0 150.11,33.36 195.98,95.91 50.04,54.21 79.23,125.09 79.23,200.15 0,75.06 -33.36,145.94 -91.74,195.98l-1088.33 1038.29 1113.34 1476.12c20.85,29.19 37.53,62.55 50.04,95.91 12.51,41.7 16.68,75.06 16.68,112.59zm2243.37 -2539.43l0 225.17 -846.48 -4.17 0 -396.13c-208.49,-54.21 -358.61,-241.85 -358.61,-458.68 0,-12.51 0,-20.85 0,-33.36 20.85,-241.85 216.83,-429.49 462.85,-437.83 258.53,-4.17 475.36,200.15 479.53,462.85 4.17,221 -145.94,412.81 -358.61,467.02l0 170.96 621.3 4.17zm-733.89 -383.62c137.6,0 246.02,-112.59 246.02,-246.02 0,-133.43 -112.59,-246.02 -246.02,-246.02 -137.6,0 -246.02,112.59 -246.02,246.02 -4.17,137.6 108.42,250.19 246.02,246.02 0,4.17 0,4.17 0,0l0 0zm733.89 1380.21l0 225.17 -1025.78 0c-50.04,208.49 -237.68,358.61 -454.51,358.61 -12.51,0 -20.85,0 -33.36,0 -258.53,-16.68 -454.51,-241.85 -437.83,-500.38 16.68,-258.53 241.85,-454.51 500.38,-437.83 204.32,12.51 379.45,158.45 425.32,358.61l1025.78 -4.17zm-1238.44 112.59c0,-137.6 -112.59,-246.02 -246.02,-246.02 -133.43,0 -246.02,112.59 -246.02,246.02 0,137.6 112.59,246.02 246.02,246.02l0 0c137.6,0 246.02,-112.59 246.02,-246.02 0,0 0,0 0,0l0 0zm617.13 1079.99l0 170.96c208.49,50.04 358.61,237.68 358.61,454.51 0,12.51 0,20.85 0,33.36 -20.85,241.85 -221,429.49 -462.85,437.83 -258.53,4.17 -475.36,-200.15 -479.53,-462.85 -4.17,-221 145.94,-412.81 358.61,-467.02l0 -391.96 842.31 4.17 0 225.17 -617.13 -4.17zm-112.59 379.45c-137.6,0 -246.02,112.59 -246.02,246.02 0,137.6 112.59,246.02 246.02,246.02 137.6,0 246.02,-112.59 246.02,-246.02 0,0 0,0 0,0 0,-137.6 -112.59,-246.02 -246.02,-246.02l0 0z"/>
 </g>
</svg>
