<?xml version="1.0" encoding="UTF-8"?>
<!DOCTYPE svg PUBLIC "-//W3C//DTD SVG 1.1//EN" "http://www.w3.org/Graphics/SVG/1.1/DTD/svg11.dtd">
<!-- Creator: CorelDRAW 2020 (64-Bit) -->
<svg xmlns="http://www.w3.org/2000/svg" xml:space="preserve" width="56.364mm" height="56.322mm" version="1.1" style="shape-rendering:geometricPrecision; text-rendering:geometricPrecision; image-rendering:optimizeQuality; fill-rule:evenodd; clip-rule:evenodd"
viewBox="0 0 5636.4 5632.2"
 xmlns:xlink="http://www.w3.org/1999/xlink"
 xmlns:xodm="http://www.corel.com/coreldraw/odm/2003">
 <defs>
  <style type="text/css">
   <![CDATA[
    .fil0 {fill:#BF0811;fill-rule:nonzero}
    .fil1 {fill:white;fill-rule:nonzero}
   ]]>
  </style>
 </defs>
 <g id="Capa_x0020_1">
  <metadata id="CorelCorpID_0Corel-Layer"/>
  <path id="Trazado_3045" class="fil0" d="M5006.4 1541.4l0 172.2 625.8 0 0 -1407c0,-172.2 -138.6,-306.6 -306.6,-306.6l-5019 0c-168,0 -306.6,138.6 -306.6,306.6l0 5019c0,168 138.6,306.6 306.6,306.6l5019 0c172.2,0 306.6,-138.6 306.6,-306.6l0 -1402.8 -621.6 0 0 172.2c210,50.4 361.2,239.4 361.2,457.8 0,12.6 0,21 0,33.6 -21,243.6 -222.6,432.6 -466.2,441 -260.4,4.2 -478.8,-201.6 -483,-466.2 -4.2,-222.6 147,-415.8 361.2,-470.4l0 -399 848.4 4.2 0 -751.8 -1033.2 0c-50.4,210 -239.4,361.2 -457.8,361.2 -12.6,0 -21,0 -33.6,0 -260.4,-16.8 -457.8,-243.6 -441,-504 16.8,-260.4 243.6,-457.8 504,-441 205.8,12.6 382.2,159.6 428.4,361.2l1033.2 0 0 -777 -852.6 -4.2 0 -399c-210,-54.6 -361.2,-243.6 -361.2,-462 0,-12.6 0,-21 0,-33.6 21,-243.6 218.4,-432.6 466.2,-441 260.4,-4.2 478.8,201.6 483,466.2 8.4,222.6 -142.8,415.8 -361.2,470.4l0 0zm-1730.4 2956.8c-67.2,58.8 -151.2,92.4 -239.4,88.2 -42,0 -88.2,-8.4 -126,-29.4 -42,-21 -75.6,-50.4 -100.8,-84l-1092 -1440.6 -478.8 457.8 0 789.6c4.2,84 -29.4,163.8 -88.2,222.6 -63,58.8 -142.8,88.2 -226.8,84 -84,4.2 -163.8,-29.4 -222.6,-88.2 -58.8,-58.8 -92.4,-134.4 -88.2,-218.4l0 -2910.6c0,-84 29.4,-163.8 92.4,-218.4 63,-58.8 147,-92.4 231,-88.2 84,-4.2 163.8,29.4 222.6,84 58.8,58.8 88.2,138.6 84,222.6l0 1369.2 1608.61 -1587.6c63,-71.4 151.2,-113.4 247.8,-117.6 75.6,0 151.2,33.6 197.4,96.6 50.4,54.6 79.8,126 79.8,201.6 0,75.6 -33.6,147 -92.4,197.4l-1096.2 1045.8 1121.4 1486.8c21,29.4 37.8,63 50.4,96.6 12.6,33.6 21,71.4 21,109.2 0,92.4 -37.8,176.4 -105,231l0 0 -0.01 0zm1621.2 -3666.6c-138.6,0 -247.8,113.4 -247.8,247.8 0,134.4 113.4,247.8 247.8,247.8 138.6,0 247.8,-113.4 247.8,-247.8 0,0 0,0 0,0 0,-138.6 -113.4,-247.8 -247.8,-247.8l0 0zm-756 1747.21c-138.6,0 -247.8,113.4 -247.8,247.8 0,134.4 113.4,247.8 247.8,247.8 138.6,0 247.8,-113.4 247.8,-247.8 0,0 0,0 0,0 0,-134.4 -109.2,-247.8 -247.8,-247.8l0 0zm756 1722c-138.6,0 -247.8,113.4 -247.8,247.8 0,138.6 113.4,247.8 247.8,247.8 138.6,0 247.8,-113.4 247.8,-247.8 0,0 0,0 0,0 0,-138.6 -113.4,-247.8 -247.8,-247.8l0 0z"/>
  <path id="Trazado_3046" class="fil1" d="M3376.8 4271.4c0,88.2 -37.8,172.2 -105,226.8 -67.2,58.8 -151.2,92.4 -239.4,88.2 -42,0 -88.2,-8.4 -126,-29.4 -42,-21 -75.6,-50.4 -100.8,-84l-1092 -1440.6 -478.8 457.8 0 789.6c4.2,84 -29.4,163.8 -88.2,222.6 -63,58.8 -142.8,88.2 -226.8,84 -84,4.2 -163.8,-29.4 -222.6,-88.2 -58.8,-58.8 -92.4,-134.4 -88.2,-218.4l0 -2910.6c0,-84 29.4,-163.8 92.4,-218.4 63,-58.8 147,-92.4 231,-88.2 84,-4.2 163.8,29.4 222.6,84 58.8,58.8 88.2,138.6 84,222.6l0 1369.2 1612.81 -1587.6c63,-71.4 151.2,-113.4 247.8,-117.6 75.6,0 151.2,33.6 197.4,96.6 50.4,54.6 79.8,126 79.8,201.6 0,75.6 -33.6,147 -92.4,197.4l-1096.2 1045.8 1121.4 1486.8c21,29.4 37.8,63 50.4,96.6 12.6,42 16.8,75.6 16.8,113.4l-0.01 0zm2259.6 -2557.8l0 226.8 -852.6 -4.2 0 -399c-210,-54.6 -361.2,-243.6 -361.2,-462 0,-12.6 0,-21 0,-33.6 21,-243.6 218.4,-432.6 466.2,-441 260.4,-4.2 478.8,201.6 483,466.2 4.2,222.6 -147,415.8 -361.2,470.4l0 172.2 625.8 4.2zm-739.2 -386.4c138.6,0 247.8,-113.4 247.8,-247.8 0,-134.4 -113.4,-247.8 -247.8,-247.8 -138.6,0 -247.8,113.4 -247.8,247.8 -4.2,138.6 109.2,252 247.8,247.8 0,4.2 0,4.2 0,0l0 0zm739.2 1390.2l0 226.8 -1033.2 0c-50.4,210 -239.4,361.2 -457.8,361.2 -12.6,0 -21,0 -33.6,0 -260.4,-16.8 -457.8,-243.6 -441,-504 16.8,-260.4 243.6,-457.8 504,-441 205.8,12.6 382.2,159.6 428.4,361.2l1033.2 -4.2zm-1247.4 113.41c0,-138.6 -113.4,-247.8 -247.8,-247.8 -134.4,0 -247.8,113.4 -247.8,247.8 0,138.6 113.4,247.8 247.8,247.8l0 0c138.6,0 247.8,-113.4 247.8,-247.8 0,0 0,0 0,0l0 0zm621.59 1087.8l0 172.2c210,50.4 361.2,239.4 361.2,457.8 0,12.6 0,21 0,33.6 -21,243.6 -222.6,432.6 -466.2,441 -260.4,4.2 -478.8,-201.6 -483,-466.2 -4.2,-222.6 147,-415.8 361.2,-470.4l0 -394.8 848.4 4.2 0 226.8 -621.6 -4.2zm-113.4 382.2c-138.6,0 -247.8,113.4 -247.8,247.8 0,138.6 113.4,247.8 247.8,247.8 138.6,0 247.8,-113.4 247.8,-247.8 0,0 0,0 0,0 0,-138.6 -113.4,-247.8 -247.8,-247.8l0 0z"/>
 </g>
</svg>
